<svg xmlns="http://www.w3.org/2000/svg" width="24" height="24" viewBox="0 0 24 24" fill="none" stroke="currentColor" stroke-width="2" stroke-linecap="round" stroke-linejoin="round" class="lucide lucide-file-type-2">
  <path d="M4 22h14a2 2 0 0 0 2-2V7.5L14.5 2H6a2 2 0 0 0-2 2v4" stroke="#0070F3" />
  <polyline points="14 2 14 8 20 8" stroke="#0070F3" />
  <path d="M2 13v-1h6v1" stroke="#0070F3" />
  <path d="M4 18h1v-5h-1v-1h3v1H6v5h1v1H4z" stroke="#0070F3" />
  <path d="M14 13v-1h4v1l-2 5h-1l2-5h-2v2h-1" stroke="#0070F3" />
</svg>